PathFileType	4	(X/Y/Z)	C:\Users\Basilio\Documents\Thesis Gigler\squatting_fais\c3dfiles\047\SLS_pre_front3\markers_experimental.trc
DataRate	CameraRate	NumFrames	NumMarkers	Units	OrigDataRate	OrigDataStartFrame	OrigNumFrames
200.000000	200.000000	4	60	mm	200.000000	1172	1340
Frame#	Time	FHD			LBHD			RBHD			C7			T10			CLAV			LSHO			LUUPA			LMUPA			LDUPA			LLEP			LMEP			LRAD			LUL			LRFIN			RSHO			RUPA1			RMUPA			RDUPA			RLEP			RMEP			RRAD			RUL			RUFIN			LASI			RASI			USACR			LSACR			RSACR			LTHI1			LTHI2			LTHI3			LTHI4			LLFC			LMFC			LTIB1			LTIB2			LTIB3			LTIB4			LLMAL			LMMAL			LMT1			LMT2			LMT5			RTHI			RTHI2			RTHI3			RTHI4			RLFC			RMFC			RTIB1			RTIB2			RTIB3			RTIB4			RLMAL			RMMAL			RHEE			RMT1			RMT2			RMT5			
		X1	Y1	Z1	X2	Y2	Z2	X3	Y3	Z3	X4	Y4	Z4	X5	Y5	Z5	X6	Y6	Z6	X7	Y7	Z7	X8	Y8	Z8	X9	Y9	Z9	X10	Y10	Z10	X11	Y11	Z11	X12	Y12	Z12	X13	Y13	Z13	X14	Y14	Z14	X15	Y15	Z15	X16	Y16	Z16	X17	Y17	Z17	X18	Y18	Z18	X19	Y19	Z19	X20	Y20	Z20	X21	Y21	Z21	X22	Y22	Z22	X23	Y23	Z23	X24	Y24	Z24	X25	Y25	Z25	X26	Y26	Z26	X27	Y27	Z27	X28	Y28	Z28	X29	Y29	Z29	X30	Y30	Z30	X31	Y31	Z31	X32	Y32	Z32	X33	Y33	Z33	X34	Y34	Z34	X35	Y35	Z35	X36	Y36	Z36	X37	Y37	Z37	X38	Y38	Z38	X39	Y39	Z39	X40	Y40	Z40	X41	Y41	Z41	X42	Y42	Z42	X43	Y43	Z43	X44	Y44	Z44	X45	Y45	Z45	X46	Y46	Z46	X47	Y47	Z47	X48	Y48	Z48	X49	Y49	Z49	X50	Y50	Z50	X51	Y51	Z51	X52	Y52	Z52	X53	Y53	Z53	X54	Y54	Z54	X55	Y55	Z55	X56	Y56	Z56	X57	Y57	Z57	X58	Y58	Z58	X59	Y59	Z59	X60	Y60	Z60	

1173	5.86	-242.2652587890626	1753.514770507813	-1035.652465820313	-415.021453857422	1700.876342773438	-1068.209594726563	-394.5231018066407	1695.613037109375	-921.3135986328127	-417.9761657714845	1512.023803710938	-1009.920349121094	-398.442352294922	1203.877563476563	-1014.345947265625	-261.9856872558594	1483.3916015625	-1039.323486328125	-352.3338928222657	1515.868286132813	-1177.421630859375	-265.3547058105469	1478.052001953125	-1320.437133789063	-247.5897064208985	1523.224975585938	-1312.024536132813	-207.5569915771485	1502.26123046875	-1350.231079101563	-155.124267578125	1537.210083007813	-1372.146728515625	-107.9702453613282	1483.52734375	-1334.054077148438	101.9790420532227	1616.334228515625	-1385.856323242188	76.86698150634767	1634.576416015625	-1456.398559570313	166.5415344238282	1668.4814453125	-1409.323974609375	-308.1882324218751	1514.811157226563	-885.8191528320315	-172.9175720214844	1469.376586914063	-775.6274414062502	-153.0094909667969	1511.350952148438	-792.8385009765627	-105.0338745117188	1482.269897460938	-770.664245605469	-41.35921859741212	1510.689453125	-774.6143798828127	-17.58623313903809	1453.790283203125	-827.6697998046877	218.5136413574219	1573.197631835938	-825.2908325195315	205.7471160888672	1577.025512695313	-750.5476684570314	288.4943847656251	1608.192138671875	-803.074890136719	-221.8624725341797	988.1473388671877	-1118.8310546875	-206.2205657958985	1015.222045898438	-891.4497070312502	-402.0218200683595	1071.802856445313	-1006.930236816406	-402.7613220214845	1037.821655273438	-1032.662963867188	-403.7915954589845	1042.990234375	-974.168640136719	-306.4151916503907	824.1636962890627	-1174.20068359375	-268.9716491699219	748.5175781250001	-1173.079956054688	-219.8302001953126	755.1037597656251	-1165.075805664063	-295.2614746093751	694.1751708984376	-1161.708129882813	-310.4499511718751	523.3446044921876	-1118.384155273438	-275.2504577636719	519.0714111328126	-1001.1337890625	-278.1657409667969	342.1845092773438	-1017.045288085938	-287.6939392089844	291.6318969726563	-1087.921508789063	-270.1658020019532	291.8501281738282	-1044.101806640625	-284.4367675781251	217.185775756836	-1009.600524902344	-333.9636230468751	117.9584350585938	-1049.4921875	-313.2330627441407	135.6727752685547	-963.5842895507815	-191.38916015625	62.86328125000001	-978.2731933593752	-189.0285186767578	60.34685134887697	-1022.938842773438	-237.2707672119141	45.73307037353516	-1068.671264648438	-197.0462036132813	861.068054199219	-793.5823974609377	-131.2313690185547	850.9686279296877	-799.846862792969	-111.8264999389649	872.8513793945315	-813.7703247070315	-92.18892669677736	776.8913574218752	-802.840515136719	12.87053871154786	677.5427246093751	-827.1411132812502	19.20315170288086	674.8877563476564	-949.288269042969	97.53546142578128	577.2916259765626	-850.9825439453127	77.65073394775392	480.1289978027345	-802.7610473632815	114.7322540283203	495.2001037597657	-826.1948852539065	136.1897583007813	453.0525817871095	-860.8562011718752	136.1888122558594	294.0072021484376	-820.9578247070315	143.1270751953125	308.2818298339844	-911.1096191406252	82.96547698974611	243.7417755126954	-862.7985839843752	286.8714599609376	268.7576904296876	-913.923278808594	294.9129943847657	279.5072326660157	-870.0759277343752	263.1411743164063	249.0939636230469	-806.454284667969	
1174	5.865	-242.2761993408204	1753.551391601563	-1036.24755859375	-415.1584472656251	1700.831787109375	-1068.634643554688	-394.5623474121095	1695.670043945313	-922.1065063476565	-418.0804443359376	1512.032348632813	-1010.280822753906	-398.4505004882814	1203.867309570313	-1014.51953125	-262.0893554687501	1483.380004882813	-1039.415283203125	-352.3598327636719	1515.6669921875	-1177.6611328125	-265.3223266601563	1477.735717773438	-1320.488891601563	-247.2410430908204	1522.738647460938	-1312.299682617188	-207.4765167236329	1501.962890625	-1350.243774414063	-155.0896301269532	1536.794799804688	-1372.44189453125	-107.9471740722657	1482.880737304688	-1334.047607421875	102.1937942504883	1615.474609375	-1386.650146484375	77.12822723388673	1633.544067382813	-1457.19677734375	166.7733764648438	1667.67919921875	-1410.069946289063	-308.4288024902344	1514.9404296875	-886.0183715820315	-173.1605682373047	1469.664428710938	-775.7756958007815	-153.3200225830078	1511.505493164063	-793.1781005859377	-105.1588134765625	1482.393432617188	-770.8138427734377	-41.67755508422852	1510.7255859375	-774.754821777344	-17.81493186950684	1453.940795898438	-827.7847900390627	218.222885131836	1573.36962890625	-825.522888183594	205.7767028808594	1577.405395507813	-751.1804199218751	288.7962646484376	1608.515747070313	-803.8576660156252	-221.6524353027344	988.1845703125002	-1118.791625976563	-206.3584442138672	1015.156372070313	-891.1234130859377	-402.047332763672	1071.74072265625	-1007.064697265625	-402.7079467773439	1037.759765625	-1032.7724609375	-403.8424072265626	1042.988525390625	-974.2469482421877	-306.2467346191407	824.1168212890627	-1174.212890625	-268.8095397949219	748.5460205078126	-1173.091918945313	-219.7544708251954	755.0737304687501	-1164.9287109375	-295.0238647460938	694.1530761718751	-1161.79345703125	-310.3298034667969	523.3306274414064	-1118.402099609375	-274.9866943359376	519.1795654296876	-1001.384765625	-278.0152893066407	342.1828002929688	-1017.209716796875	-287.6350708007813	291.5775146484376	-1087.943969726563	-270.0285339355469	291.7682800292969	-1044.040283203125	-284.3364257812501	217.0496063232422	-1009.77294921875	-333.8701477050782	117.9641571044922	-1049.490966796875	-313.2398376464844	135.6430816650391	-963.5972290039065	-191.3662414550782	62.82344436645509	-978.320007324219	-189.0251007080078	60.35136795043947	-1022.944702148438	-237.2410430908204	45.74676132202149	-1068.672729492188	-197.1554565429688	861.1207275390627	-793.4962158203127	-131.3344421386719	850.9700927734377	-799.7620849609377	-111.9621505737305	872.849548339844	-813.6517333984377	-92.38783264160158	776.8673095703127	-802.7159423828127	12.7144136428833	677.5578613281251	-827.0313720703127	23.38764762878418	676.6469116210939	-951.946472167969	97.48541259765628	577.1900024414064	-850.9196777343752	77.4997024536133	480.1544799804689	-802.7396240234377	114.6703033447266	495.2308044433595	-826.1186523437502	136.1453247070313	453.0455627441407	-860.878601074219	136.1377410888672	293.9957275390626	-821.0723876953127	143.217041015625	308.3400268554688	-911.1428222656252	82.9133987426758	243.735580444336	-862.894226074219	286.6877441406251	268.7693481445313	-913.820007324219	294.8435363769532	279.5058898925782	-870.0396728515627	263.1021728515626	249.1227111816407	-806.5520019531252	
1175	5.87	-242.1694793701172	1753.5283203125	-1036.820556640625	-415.1814270019532	1700.857788085938	-1068.986328125	-394.6500854492189	1695.85009765625	-922.2559814453127	-418.1891174316407	1512.0205078125	-1010.589477539063	-398.503387451172	1203.910522460938	-1014.657043457031	-262.1776733398438	1483.343627929688	-1039.510986328125	-352.2482604980469	1515.509155273438	-1177.926879882813	-265.2127685546876	1477.388549804688	-1320.610229492188	-247.5939636230469	1523.005004882813	-1312.833129882813	-207.3900909423829	1501.579223632813	-1350.402465820313	-154.8168640136719	1536.209838867188	-1372.76220703125	-108.0029449462891	1482.408447265625	-1333.932861328125	102.0550003051758	1614.626342773438	-1387.132202148438	77.20584106445314	1632.632934570313	-1457.901489257813	167.2236022949219	1666.501098632813	-1411.002807617188	-308.7113342285157	1515.003295898438	-886.1807250976565	-173.478744506836	1469.984497070313	-775.7727661132815	-153.4906463623047	1511.663940429688	-793.4276123046877	-105.4415359497071	1482.641967773438	-770.8946533203127	-42.0045280456543	1510.928833007813	-774.8386230468752	-18.15269470214844	1454.066772460938	-828.0723876953127	217.8331146240235	1573.430419921875	-825.623229980469	205.6276855468751	1577.622924804688	-751.5125122070314	288.7083129882813	1608.7900390625	-804.3060302734377	-221.6662292480469	988.1839599609377	-1118.677001953125	-206.4629058837891	1015.209167480469	-891.133239746094	-402.0655517578126	1071.739135742188	-1007.148376464844	-402.566131591797	1037.739379882813	-1032.88623046875	-403.8241271972657	1042.979370117188	-974.4005126953127	-306.0518798828126	824.125183105469	-1174.255493164063	-268.6976013183594	748.6467895507814	-1172.975708007813	-219.5215454101563	755.1011352539064	-1164.859130859375	-294.9087829589844	694.1342773437501	-1161.854858398438	-310.1205139160157	523.3499755859376	-1118.402709960938	-274.7879943847657	519.2106323242189	-1001.389587402344	-277.7925109863282	342.2830200195313	-1017.40869140625	-287.5126342773438	291.5636596679688	-1087.924438476563	-270.0887756347657	292.1189270019532	-1043.988403320313	-284.3285522460938	217.0962829589844	-1009.726806640625	-333.9555664062501	117.9910964965821	-1049.474731445313	-313.2786865234376	135.6354522705078	-963.6113281250002	-191.2803955078125	62.81526947021486	-978.2685546875002	-189.0292205810547	60.34630584716798	-1022.938598632813	-237.2302398681641	45.75238037109376	-1068.669677734375	-197.2306213378907	861.1348266601565	-793.5893554687502	-131.3552398681641	850.957458496094	-799.6811523437502	-112.1752243041992	872.8713989257815	-813.4479980468752	-92.50623321533205	776.8986816406252	-802.5872802734377	12.6239595413208	677.5704956054689	-826.9439697265627	23.45623016357422	676.7192382812501	-951.8616333007815	97.38857269287112	577.2824707031251	-850.8991699218752	77.33316040039064	480.0520019531251	-802.7092285156252	114.4568710327149	495.2768554687501	-825.9854736328127	136.0515441894532	453.1604919433595	-860.790710449219	136.073959350586	293.9909362792969	-821.1347656250002	143.0879516601563	308.4131774902344	-911.2092895507815	82.88024139404298	243.725326538086	-863.0067138671877	286.4785156250001	268.8930664062501	-913.8164062500002	294.8040466308594	279.5174865722657	-870.028259277344	263.0678405761719	249.0816497802735	-806.5340576171877	
1176	5.875	-242.835922241211	1753.1796875	-1035.71923828125	-415.2158813476564	1700.787109375	-1069.4072265625	-394.8178710937501	1695.924072265625	-922.559997558594	-418.2952270507814	1511.99755859375	-1010.818908691406	-398.616668701172	1203.9306640625	-1014.814880371094	-262.1238403320313	1483.35693359375	-1039.602661132813	-352.3840332031251	1515.2978515625	-1177.982788085938	-265.1582641601563	1477.065673828125	-1320.667358398438	-247.4771575927735	1522.641357421875	-1312.986694335938	-207.2333984375001	1501.119140625	-1350.429443359375	-154.7565460205078	1535.789672851563	-1372.920654296875	-107.6589813232422	1482.054931640625	-1334.233276367188	102.3844757080078	1613.775512695313	-1387.606323242188	77.20040893554689	1631.54345703125	-1458.453857421875	167.0260162353516	1665.41455078125	-1412.035522460938	-308.8420410156251	1515.137939453125	-886.3176879882815	-173.7384338378907	1470.222290039063	-775.724548339844	-153.7449188232422	1511.824462890625	-793.6652832031252	-105.684814453125	1482.734741210938	-770.9835205078127	-42.28896713256837	1511.038818359375	-774.7446899414065	-18.41559219360352	1454.265991210938	-828.2606201171877	217.0417633056641	1573.837280273438	-825.5696411132815	205.0799407958985	1577.791748046875	-751.2235717773439	288.7622375488282	1609.07568359375	-804.9087524414065	-221.4797821044922	988.2496337890627	-1118.6376953125	-206.5448150634766	1015.256958007813	-891.135925292969	-402.1147766113282	1071.775756835938	-1007.240539550781	-402.7451782226564	1037.76416015625	-1032.981811523438	-403.7662963867189	1043.054809570313	-974.5139160156252	-305.7803649902344	824.1971435546877	-1174.257446289063	-268.5514831542969	748.7021484375001	-1173.02294921875	-219.4126739501954	755.1323242187501	-1164.7890625	-294.7712402343751	694.1903686523439	-1161.866455078125	-309.9885559082032	523.4374389648439	-1118.405151367188	-274.6939086914063	519.2136840820314	-1001.367004394531	-277.7893371582032	342.1482543945313	-1017.307922363281	-287.5452880859376	291.5488586425782	-1087.930541992188	-270.0051879882813	292.1549682617188	-1044.020141601563	-284.2500000000001	217.0150146484376	-1009.856811523438	-333.8987426757813	117.9716491699219	-1049.508056640625	-313.2377624511719	135.6903686523438	-963.648864746094	-191.4895324707032	62.73870849609376	-978.1639404296877	-189.0301055908203	60.34911346435548	-1022.947326660156	-237.2136993408204	45.76044464111329	-1068.6787109375	-197.3020324707032	861.184265136719	-793.569274902344	-131.4062042236328	850.9524536132815	-799.759216308594	-112.2151870727539	872.8765258789065	-813.4750976562502	-92.61667633056642	776.8493652343752	-802.5249023437502	12.57489776611328	677.6320800781251	-826.5495605468752	23.42182731628418	676.8039550781251	-951.7845458984377	97.24794769287112	577.2522583007814	-850.7847900390627	77.13948822021486	480.0064392089845	-802.658874511719	114.380241394043	495.2537231445314	-826.080749511719	135.9743804931641	453.1510620117189	-860.682556152344	136.1083374023438	293.9947814941407	-821.076843261719	143.1012115478516	308.4782104492188	-911.2213134765627	82.82444763183595	243.7839355468751	-863.0181884765627	286.4769592285157	268.9686279296876	-913.7404785156252	294.8059997558594	279.5747680664063	-869.9635009765627	263.0256958007813	249.1360473632813	-806.5542602539065	
